<svg xmlns="http://www.w3.org/2000/svg" width="32" height="29" viewBox="0 0 32 29">
  <g fill="none" fill-rule="evenodd" transform="translate(-8 -9)">
    <rect width="48" height="48"/>
    <path fill="#000" fill-rule="nonzero" d="M19.4823529,31.8117647 L17.6,32.9411765 C17.4117647,33.0352941 17.4117647,33.2235294 17.5058824,33.4117647 L17.9764706,34.2588235 C18.0705882,34.3529412 17.9764706,34.5411765 17.8823529,34.5411765 L13.1764706,34.5411765 C12.9882353,34.5411765 12.9882353,34.4470588 13.0823529,34.2588235 L15.4352941,30.2117647 C15.5294118,30.1176471 15.6235294,30.1176471 15.7176471,30.2117647 L16.1882353,31.0588235 C16.2823529,31.2470588 16.4705882,31.2470588 16.6588235,31.1529412 L18.5411765,30.0235294 C18.7294118,29.9294118 18.7294118,29.7411765 18.6352941,29.5529412 L15.8117647,24.7529412 C15.6235294,24.4705882 15.4352941,24.4705882 15.2470588,24.7529412 L11.2941176,31.6235294 L8.37647059,36.7058824 C8.18823529,36.9882353 8.37647059,37.1764706 8.65882353,37.1764706 L22.4941176,37.1764706 C22.7764706,37.1764706 22.9647059,36.9882353 22.7764706,36.7058824 L19.9529412,31.9058824 C19.7647059,31.8117647 19.5764706,31.7176471 19.4823529,31.8117647 Z M29.7411765,20.2352941 L21.4588235,24.9411765 C21.2705882,25.0352941 21.0823529,24.9411765 20.9882353,24.8470588 L19.7647059,22.6823529 C19.6705882,22.5882353 19.6705882,22.4941176 19.7647059,22.4 L23.9058824,15.1529412 L26.3529412,19.3882353 C26.4470588,19.5764706 26.6352941,19.5764706 26.8235294,19.4823529 L28.7058824,18.3529412 C28.8941176,18.2588235 28.8941176,18.0705882 28.8,17.8823529 L27.2,15.0588235 L24.2823529,9.97647059 C24.0941176,9.69411765 23.9058824,9.69411765 23.7176471,9.97647059 L16.5647059,22.3058824 C16.4705882,22.4 16.4705882,22.4941176 16.5647059,22.5882353 L20.0470588,28.6117647 C20.1411765,28.8 20.3294118,28.8 20.5176471,28.7058824 L28.8,23.9058824 C28.9882353,23.8117647 29.1764706,23.9058824 29.2705882,24 L34.9176471,33.7882353 C35.0117647,33.9764706 34.9176471,34.2588235 34.6352941,34.2588235 L26.8235294,34.2588235 C26.7294118,34.2588235 26.6352941,34.1647059 26.5411765,34.0705882 L23.8117647,29.3647059 C23.7176471,29.1764706 23.5294118,29.1764706 23.3411765,29.2705882 L21.4588235,30.4 C21.2705882,30.4941176 21.2705882,30.6823529 21.3647059,30.8705882 L24.8470588,36.8941176 C24.9411765,36.9882353 25.0352941,37.0823529 25.1294118,37.0823529 L39.3411765,37.0823529 C39.6235294,37.0823529 39.8117647,36.8941176 39.6235294,36.6117647 L30.2117647,20.4235294 C30.1176471,20.2352941 29.9294118,20.1411765 29.7411765,20.2352941 Z"/>
  </g>
</svg>
